<mxfile host="app.diagrams.net" modified="2022-11-28T12:26:24.963Z" agent="5.0 (Macintosh; Intel Mac OS X 10_15_7) AppleWebKit/605.1.15 (KHTML, like Gecko) Version/16.1 Safari/605.1.15" version="20.6.0" etag="QoBR4c8lniz9IiKl_CVp" type="github" pages="2">
  <diagram id="WabC3FPWPfR042aPlzYf" name="Page-1">
    <mxGraphModel dx="2015" dy="688" grid="1" gridSize="10" guides="1" tooltips="1" connect="1" arrows="1" fold="1" page="1" pageScale="1" pageWidth="827" pageHeight="1169" math="0" shadow="0">
      <root>
        <mxCell id="0" />
        <mxCell id="1" parent="0" />
        <mxCell id="XZqeGTy3kEbMosox7BSe-3" value="" style="edgeStyle=orthogonalEdgeStyle;rounded=0;orthogonalLoop=1;jettySize=auto;html=1;fontSize=30;" edge="1" parent="1" source="XZqeGTy3kEbMosox7BSe-1" target="XZqeGTy3kEbMosox7BSe-2">
          <mxGeometry relative="1" as="geometry">
            <Array as="points">
              <mxPoint x="325" y="340" />
            </Array>
          </mxGeometry>
        </mxCell>
        <mxCell id="XZqeGTy3kEbMosox7BSe-5" value="" style="edgeStyle=orthogonalEdgeStyle;rounded=0;orthogonalLoop=1;jettySize=auto;html=1;fontSize=30;" edge="1" parent="1" source="XZqeGTy3kEbMosox7BSe-1" target="XZqeGTy3kEbMosox7BSe-4">
          <mxGeometry relative="1" as="geometry" />
        </mxCell>
        <mxCell id="XZqeGTy3kEbMosox7BSe-1" value="Index.html" style="rounded=1;whiteSpace=wrap;html=1;fontSize=30;" vertex="1" parent="1">
          <mxGeometry x="220" y="180" width="210" height="60" as="geometry" />
        </mxCell>
        <mxCell id="XZqeGTy3kEbMosox7BSe-14" value="" style="edgeStyle=orthogonalEdgeStyle;rounded=0;orthogonalLoop=1;jettySize=auto;html=1;fontSize=30;" edge="1" parent="1" source="XZqeGTy3kEbMosox7BSe-2" target="XZqeGTy3kEbMosox7BSe-13">
          <mxGeometry relative="1" as="geometry" />
        </mxCell>
        <mxCell id="XZqeGTy3kEbMosox7BSe-2" value="main.ts" style="whiteSpace=wrap;html=1;fontSize=30;rounded=1;" vertex="1" parent="1">
          <mxGeometry x="400" y="320" width="120" height="60" as="geometry" />
        </mxCell>
        <mxCell id="XZqeGTy3kEbMosox7BSe-7" value="" style="edgeStyle=orthogonalEdgeStyle;rounded=0;orthogonalLoop=1;jettySize=auto;html=1;fontSize=30;" edge="1" parent="1" source="XZqeGTy3kEbMosox7BSe-4" target="XZqeGTy3kEbMosox7BSe-6">
          <mxGeometry relative="1" as="geometry" />
        </mxCell>
        <mxCell id="XZqeGTy3kEbMosox7BSe-4" value="angular.json" style="whiteSpace=wrap;html=1;fontSize=30;rounded=1;" vertex="1" parent="1">
          <mxGeometry x="140" y="350" width="190" height="60" as="geometry" />
        </mxCell>
        <mxCell id="XZqeGTy3kEbMosox7BSe-11" style="edgeStyle=orthogonalEdgeStyle;rounded=0;orthogonalLoop=1;jettySize=auto;html=1;entryX=0.75;entryY=0;entryDx=0;entryDy=0;fontSize=30;" edge="1" parent="1" source="XZqeGTy3kEbMosox7BSe-6" target="XZqeGTy3kEbMosox7BSe-10">
          <mxGeometry relative="1" as="geometry" />
        </mxCell>
        <mxCell id="XZqeGTy3kEbMosox7BSe-6" value="tsconfig.app.json" style="whiteSpace=wrap;html=1;fontSize=30;rounded=1;" vertex="1" parent="1">
          <mxGeometry x="100" y="500" width="275" height="60" as="geometry" />
        </mxCell>
        <mxCell id="XZqeGTy3kEbMosox7BSe-9" style="edgeStyle=orthogonalEdgeStyle;rounded=0;orthogonalLoop=1;jettySize=auto;html=1;entryX=0;entryY=0.667;entryDx=0;entryDy=0;entryPerimeter=0;fontSize=30;" edge="1" parent="1" source="XZqeGTy3kEbMosox7BSe-8" target="XZqeGTy3kEbMosox7BSe-1">
          <mxGeometry relative="1" as="geometry" />
        </mxCell>
        <mxCell id="XZqeGTy3kEbMosox7BSe-8" value="npx ng serve -o" style="rounded=1;whiteSpace=wrap;html=1;fontSize=30;" vertex="1" parent="1">
          <mxGeometry x="-190" y="210" width="200" height="60" as="geometry" />
        </mxCell>
        <mxCell id="XZqeGTy3kEbMosox7BSe-10" value="tsconfig.json" style="whiteSpace=wrap;html=1;fontSize=30;rounded=1;" vertex="1" parent="1">
          <mxGeometry x="140" y="640" width="120" height="60" as="geometry" />
        </mxCell>
        <mxCell id="XZqeGTy3kEbMosox7BSe-12" value="internallyusedbytsconfig.app.json" style="text;html=1;strokeColor=none;fillColor=none;align=center;verticalAlign=middle;whiteSpace=wrap;rounded=0;fontSize=30;" vertex="1" parent="1">
          <mxGeometry x="280" y="585" width="60" height="30" as="geometry" />
        </mxCell>
        <mxCell id="XZqeGTy3kEbMosox7BSe-16" style="edgeStyle=orthogonalEdgeStyle;rounded=0;orthogonalLoop=1;jettySize=auto;html=1;entryX=0.583;entryY=0;entryDx=0;entryDy=0;entryPerimeter=0;fontSize=30;" edge="1" parent="1" source="XZqeGTy3kEbMosox7BSe-13" target="XZqeGTy3kEbMosox7BSe-15">
          <mxGeometry relative="1" as="geometry" />
        </mxCell>
        <mxCell id="XZqeGTy3kEbMosox7BSe-13" value="appModule.ts(Bootstrapingmodule)entry module)" style="whiteSpace=wrap;html=1;fontSize=30;rounded=1;" vertex="1" parent="1">
          <mxGeometry x="600" y="320" width="720" height="100" as="geometry" />
        </mxCell>
        <mxCell id="XZqeGTy3kEbMosox7BSe-15" value="app.module.ts" style="whiteSpace=wrap;html=1;fontSize=30;rounded=1;" vertex="1" parent="1">
          <mxGeometry x="820" y="560" width="120" height="60" as="geometry" />
        </mxCell>
        <mxCell id="XZqeGTy3kEbMosox7BSe-17" value="bootstrap:appComponent" style="whiteSpace=wrap;html=1;fontSize=30;rounded=1;" vertex="1" parent="1">
          <mxGeometry x="827" y="680" width="120" height="60" as="geometry" />
        </mxCell>
        <mxCell id="XZqeGTy3kEbMosox7BSe-18" value="app component" style="whiteSpace=wrap;html=1;fontSize=30;rounded=1;" vertex="1" parent="1">
          <mxGeometry x="810" y="820" width="120" height="60" as="geometry" />
        </mxCell>
        <mxCell id="XZqeGTy3kEbMosox7BSe-19" value="app.component.ts==&amp;gt;selectorName:approot.&lt;br&gt;it will replace the app.component.html&lt;br&gt;content&amp;nbsp;instead&amp;nbsp;of&amp;nbsp;approotelment&amp;nbsp;from&lt;br&gt;index.html&amp;nbsp;" style="whiteSpace=wrap;html=1;fontSize=30;rounded=1;" vertex="1" parent="1">
          <mxGeometry x="530" y="940" width="810" height="210" as="geometry" />
        </mxCell>
      </root>
    </mxGraphModel>
  </diagram>
  <diagram id="ZPLRbGpSaslrhPX4yDCW" name="Page-2">
    <mxGraphModel dx="946" dy="645" grid="1" gridSize="10" guides="1" tooltips="1" connect="1" arrows="1" fold="1" page="1" pageScale="1" pageWidth="827" pageHeight="1169" math="0" shadow="0">
      <root>
        <mxCell id="0" />
        <mxCell id="1" parent="0" />
        <mxCell id="fyBZK_K-n-fSLN7-inxk-1" value="DevConnector" style="rounded=1;whiteSpace=wrap;html=1;fontSize=30;" vertex="1" parent="1">
          <mxGeometry x="380" y="220" width="320" height="60" as="geometry" />
        </mxCell>
      </root>
    </mxGraphModel>
  </diagram>
</mxfile>
